<?xml version="1.0"?><svg xmlns="http://www.w3.org/2000/svg" version="1.1" width="81" height="47" viewBox="0 0 81 47"><g><rect x="0" y="0" width="81" height="47" fill="white"/><g transform="translate(2 5)"><g><rect x="10" y="0" width="2" height="32" fill="black"/><rect x="13" y="0" width="1" height="32" fill="black"/><rect x="16" y="0" width="3" height="32" fill="black"/><rect x="21" y="0" width="1" height="32" fill="black"/><rect x="23" y="0" width="3" height="32" fill="black"/><rect x="27" y="0" width="2" height="32" fill="black"/><rect x="32" y="0" width="2" height="32" fill="black"/><rect x="36" y="0" width="1" height="32" fill="black"/><rect x="41" y="0" width="1" height="32" fill="black"/><rect x="43" y="0" width="1" height="32" fill="black"/><rect x="46" y="0" width="1" height="32" fill="black"/><rect x="51" y="0" width="2" height="32" fill="black"/><rect x="54" y="0" width="2" height="32" fill="black"/><rect x="59" y="0" width="3" height="32" fill="black"/><rect x="63" y="0" width="1" height="32" fill="black"/><rect x="65" y="0" width="2" height="32" fill="black"/><text x="38.5" y="42" text-anchor="middle" font-family="monospace" font-size="10" fill="black">4561</text></g></g></g></svg>