<?xml version="1.0"?><svg xmlns="http://www.w3.org/2000/svg" version="1.1" width="125" height="47" viewBox="0 0 125 47"><g><rect x="0" y="0" width="125" height="47" fill="white"/><g transform="translate(2 5)"><g><rect x="10" y="0" width="2" height="32" fill="black"/><rect x="13" y="0" width="1" height="32" fill="black"/><rect x="18" y="0" width="1" height="32" fill="black"/><rect x="21" y="0" width="1" height="32" fill="black"/><rect x="23" y="0" width="2" height="32" fill="black"/><rect x="28" y="0" width="1" height="32" fill="black"/><rect x="32" y="0" width="1" height="32" fill="black"/><rect x="34" y="0" width="2" height="32" fill="black"/><rect x="39" y="0" width="1" height="32" fill="black"/><rect x="43" y="0" width="1" height="32" fill="black"/><rect x="46" y="0" width="3" height="32" fill="black"/><rect x="51" y="0" width="2" height="32" fill="black"/><rect x="54" y="0" width="1" height="32" fill="black"/><rect x="56" y="0" width="3" height="32" fill="black"/><rect x="60" y="0" width="4" height="32" fill="black"/><rect x="65" y="0" width="1" height="32" fill="black"/><rect x="67" y="0" width="4" height="32" fill="black"/><rect x="74" y="0" width="1" height="32" fill="black"/><rect x="76" y="0" width="3" height="32" fill="black"/><rect x="81" y="0" width="2" height="32" fill="black"/><rect x="85" y="0" width="1" height="32" fill="black"/><rect x="87" y="0" width="2" height="32" fill="black"/><rect x="91" y="0" width="1" height="32" fill="black"/><rect x="93" y="0" width="1" height="32" fill="black"/><rect x="98" y="0" width="2" height="32" fill="black"/><rect x="103" y="0" width="3" height="32" fill="black"/><rect x="107" y="0" width="1" height="32" fill="black"/><rect x="109" y="0" width="2" height="32" fill="black"/><text x="60.5" y="42" text-anchor="middle" font-family="monospace" font-size="10" fill="black">DD19629</text></g></g></g></svg>