<?xml version="1.0"?><svg xmlns="http://www.w3.org/2000/svg" version="1.1" width="163" height="47" viewBox="0 0 163 47"><g><rect x="0" y="0" width="163" height="47" fill="white"/><g transform="translate(10 5)"><g><rect x="0" y="0" width="1" height="32" fill="black"/><rect x="4" y="0" width="1" height="32" fill="black"/><rect x="6" y="0" width="3" height="32" fill="black"/><rect x="10" y="0" width="3" height="32" fill="black"/><rect x="14" y="0" width="1" height="32" fill="black"/><text x="7.5" y="42" text-anchor="middle" font-family="monospace" font-size="10" fill="black">*</text></g><g></g><g><rect x="16" y="0" width="1" height="32" fill="black"/><rect x="18" y="0" width="1" height="32" fill="black"/><rect x="20" y="0" width="3" height="32" fill="black"/><rect x="26" y="0" width="1" height="32" fill="black"/><rect x="28" y="0" width="3" height="32" fill="black"/><text x="23.5" y="42" text-anchor="middle" font-family="monospace" font-size="10" fill="black">D</text></g><g></g><g><rect x="32" y="0" width="1" height="32" fill="black"/><rect x="34" y="0" width="1" height="32" fill="black"/><rect x="36" y="0" width="3" height="32" fill="black"/><rect x="42" y="0" width="1" height="32" fill="black"/><rect x="44" y="0" width="3" height="32" fill="black"/><text x="39.5" y="42" text-anchor="middle" font-family="monospace" font-size="10" fill="black">D</text></g><g></g><g><rect x="48" y="0" width="3" height="32" fill="black"/><rect x="52" y="0" width="1" height="32" fill="black"/><rect x="56" y="0" width="1" height="32" fill="black"/><rect x="58" y="0" width="1" height="32" fill="black"/><rect x="60" y="0" width="3" height="32" fill="black"/><text x="55.5" y="42" text-anchor="middle" font-family="monospace" font-size="10" fill="black">1</text></g><g></g><g><rect x="64" y="0" width="1" height="32" fill="black"/><rect x="66" y="0" width="3" height="32" fill="black"/><rect x="72" y="0" width="1" height="32" fill="black"/><rect x="74" y="0" width="3" height="32" fill="black"/><rect x="78" y="0" width="1" height="32" fill="black"/><text x="71.5" y="42" text-anchor="middle" font-family="monospace" font-size="10" fill="black">9</text></g><g></g><g><rect x="80" y="0" width="1" height="32" fill="black"/><rect x="82" y="0" width="1" height="32" fill="black"/><rect x="86" y="0" width="3" height="32" fill="black"/><rect x="90" y="0" width="1" height="32" fill="black"/><rect x="92" y="0" width="3" height="32" fill="black"/><text x="87.5" y="42" text-anchor="middle" font-family="monospace" font-size="10" fill="black">4</text></g><g></g><g><rect x="96" y="0" width="1" height="32" fill="black"/><rect x="98" y="0" width="1" height="32" fill="black"/><rect x="102" y="0" width="3" height="32" fill="black"/><rect x="106" y="0" width="3" height="32" fill="black"/><rect x="110" y="0" width="1" height="32" fill="black"/><text x="103.5" y="42" text-anchor="middle" font-family="monospace" font-size="10" fill="black">0</text></g><g></g><g><rect x="112" y="0" width="1" height="32" fill="black"/><rect x="114" y="0" width="1" height="32" fill="black"/><rect x="118" y="0" width="3" height="32" fill="black"/><rect x="122" y="0" width="1" height="32" fill="black"/><rect x="124" y="0" width="3" height="32" fill="black"/><text x="119.5" y="42" text-anchor="middle" font-family="monospace" font-size="10" fill="black">4</text></g><g></g><g><rect x="128" y="0" width="1" height="32" fill="black"/><rect x="132" y="0" width="1" height="32" fill="black"/><rect x="134" y="0" width="3" height="32" fill="black"/><rect x="138" y="0" width="3" height="32" fill="black"/><rect x="142" y="0" width="1" height="32" fill="black"/><text x="135.5" y="42" text-anchor="middle" font-family="monospace" font-size="10" fill="black">*</text></g></g></g></svg>